<?xml version="1.0" encoding="utf-8"?>
<!-- Generator: Adobe Illustrator 27.9.0, SVG Export Plug-In . SVG Version: 6.00 Build 0)  -->
<svg version="1.1" xmlns="http://www.w3.org/2000/svg" xmlns:xlink="http://www.w3.org/1999/xlink" x="0px" y="0px"
	 viewBox="0 0 128 128" style="enable-background:new 0 0 128 128;" xml:space="preserve">
<style type="text/css">
	.st0{fill:#363D52;stroke:#212532;stroke-width:4;}
	.st1{fill:#FFFFFF;stroke:#000000;stroke-miterlimit:10;}
	.st2{fill:#FFF0A1;stroke:#000000;stroke-miterlimit:10;}
	.st3{fill:#C4BEA0;stroke:#000000;stroke-miterlimit:10;}
	.st4{fill:#FFD700;}
	.st5{fill:#2A2A2A;stroke:#000000;stroke-miterlimit:10;}
</style>
<g id="Layer_1">
	<path class="st0" d="M16,2h96c7.7,0,14,6.3,14,14v96c0,7.7-6.3,14-14,14H16c-7.7,0-14-6.3-14-14V16C2,8.3,8.3,2,16,2z"/>
</g>
<g id="Layer_2">
	<path class="st1" d="M25.4,128"/>
	<rect x="35.9" y="11.6" class="st2" width="56.1" height="11.6"/>
	<path class="st3" d="M115.5,128h-103c0-23.5,0-70,0-92.6c0-7,0-11.6,0-12.7c10.5,0,20.9,0,31.4,0c12.2,0,24.4,0,36.6,0
		c11.7,0,23.3,0,35,0C115.5,57.8,115.5,92.9,115.5,128z"/>
	<polygon class="st4" points="44.3,47.5 82.6,47.5 115,61.5 115,23.3 13,23.3 13,55.2 	"/>
	<path class="st5" d="M45.5,86.6l1.7-11.2l6.5-2.9h39.2h22.6L115,91.2c0,0-20.4,0.5-20.5,0c-0.1-0.5-11.1-15.8-11.1-15.8H53.9
		l-3.7,1.9L45.5,86.6z"/>
</g>
</svg>
