<?xml version="1.0" encoding="utf-8"?>
<!-- Generator: Adobe Illustrator 27.9.0, SVG Export Plug-In . SVG Version: 6.00 Build 0)  -->
<svg version="1.1" xmlns="http://www.w3.org/2000/svg" xmlns:xlink="http://www.w3.org/1999/xlink" x="0px" y="0px"
	 viewBox="0 0 2000 500" style="enable-background:new 0 0 2000 500;" xml:space="preserve">
<style type="text/css">
	.st0{fill:#006838;}
	.st1{fill:#EC008C;stroke:#000000;stroke-width:40;stroke-miterlimit:10;}
	.st2{fill:#8DC63F;stroke:#000000;stroke-width:40;stroke-miterlimit:10;}
</style>
<g id="Layer_3">
	<rect y="0.46" class="st0" width="2000" height="500.09"/>
</g>
<g id="Layer_2">
	<path class="st1" d="M1997.8,0.47c-90.38,375.65-153.71,503.93-199,499.98c-86.55-7.54-93.71-496.67-173-499.98
		c-80.9-3.39-139.75,503.15-222,499.98c-81.1-3.12-103.86-498.64-177-499.98c-73.7-1.36-116.73,500.61-194,499.98
		c-77.06-0.63-112.64-500.58-183-499.98c-70.21,0.6-99.38,498.93-172,499.98c-72.9,1.06-113.03-500.15-191-499.98
		c-77.85,0.16-113.22,500.05-189,499.98c-75.75-0.07-108.18-499.66-176-499.98c-31.64-0.15-71.99,108.4-120,499.98"/>
</g>
<g id="Layer_1">
	<path class="st2" d="M4,499.98C94.38,124.33,157.71-3.94,203,0c86.55,7.54,93.71,496.67,173,499.98C456.9,503.37,515.75-3.17,598,0
		c81.1,3.12,103.86,498.64,177,499.98C848.7,501.34,891.73-0.63,969,0c77.06,0.63,112.64,500.58,183,499.98
		c70.21-0.6,99.38-498.93,172-499.98c72.9-1.06,113.03,500.15,191,499.98C1592.85,499.82,1628.22-0.07,1704,0
		c75.75,0.07,108.18,499.66,176,499.98c31.64,0.15,71.99-108.4,120-499.98"/>
</g>
</svg>
